
<svg stroke-dasharray="none" shape-rendering="auto"
     xmlns="http://www.w3.org/2000/svg" font-family="Helvetica"
     text-rendering="auto" width="749" fill-opacity="1"
     contentScriptType="text/ecmascript" color-interpolation="auto"
     color-rendering="auto" preserveAspectRatio="xMidYMid meet" font-size="12"
     viewBox="0 0 749 354" fill="black"
     xmlns:xlink="http://www.w3.org/1999/xlink" stroke="black"
     image-rendering="auto" stroke-miterlimit="10" zoomAndPan="magnify"
     version="1.0" stroke-linecap="square" stroke-linejoin="miter"
     contentStyleType="text/css" font-style="normal" stroke-width="1"
     height="354" stroke-dashoffset="0" font-weight="normal" stroke-opacity="1">
    <!--Generated by the Batik Graphics2D SVG Generator-->
    <defs id="genericDefs"/>
    <g>
        <defs id="defs1">
            <linearGradient x1="500" xmlns:xlink="http://www.w3.org/1999/xlink"
                            gradientUnits="userSpaceOnUse" y1="10" x2="737"
                            y2="10" xlink:type="simple" xlink:actuate="onLoad"
                            id="linearGradient1" xlink:show="other"
                            spreadMethod="pad">
                <stop stop-opacity="1" stop-color="white" offset="0%"/>
                <stop stop-opacity="1" stop-color="white" offset="100%"/>
            </linearGradient>
            <linearGradient x1="10" xmlns:xlink="http://www.w3.org/1999/xlink"
                            gradientUnits="userSpaceOnUse" y1="10" x2="481"
                            y2="10" xlink:type="simple" xlink:actuate="onLoad"
                            id="linearGradient2" xlink:show="other"
                            spreadMethod="pad">
                <stop stop-opacity="1" stop-color="white" offset="0%"/>
                <stop stop-opacity="1" stop-color="white" offset="100%"/>
            </linearGradient>
            <linearGradient x1="11" xmlns:xlink="http://www.w3.org/1999/xlink"
                            gradientUnits="userSpaceOnUse" y1="37" x2="480"
                            y2="37" xlink:type="simple" xlink:actuate="onLoad"
                            id="linearGradient3" xlink:show="other"
                            spreadMethod="pad">
                <stop stop-opacity="1" stop-color="white" offset="0%"/>
                <stop stop-opacity="1" stop-color="white" offset="100%"/>
            </linearGradient>
            <linearGradient x1="11" xmlns:xlink="http://www.w3.org/1999/xlink"
                            gradientUnits="userSpaceOnUse" y1="56" x2="480"
                            y2="56" xlink:type="simple" xlink:actuate="onLoad"
                            id="linearGradient4" xlink:show="other"
                            spreadMethod="pad">
                <stop stop-opacity="1" stop-color="white" offset="0%"/>
                <stop stop-opacity="1" stop-color="white" offset="100%"/>
            </linearGradient>
            <linearGradient x1="11" xmlns:xlink="http://www.w3.org/1999/xlink"
                            gradientUnits="userSpaceOnUse" y1="91" x2="480"
                            y2="91" xlink:type="simple" xlink:actuate="onLoad"
                            id="linearGradient5" xlink:show="other"
                            spreadMethod="pad">
                <stop stop-opacity="1" stop-color="white" offset="0%"/>
                <stop stop-opacity="1" stop-color="white" offset="100%"/>
            </linearGradient>
            <linearGradient x1="11" xmlns:xlink="http://www.w3.org/1999/xlink"
                            gradientUnits="userSpaceOnUse" y1="141" x2="480"
                            y2="141" xlink:type="simple" xlink:actuate="onLoad"
                            id="linearGradient6" xlink:show="other"
                            spreadMethod="pad">
                <stop stop-opacity="1" stop-color="white" offset="0%"/>
                <stop stop-opacity="1" stop-color="white" offset="100%"/>
            </linearGradient>
            <linearGradient x1="30" xmlns:xlink="http://www.w3.org/1999/xlink"
                            gradientUnits="userSpaceOnUse" y1="210" x2="406"
                            y2="210" xlink:type="simple" xlink:actuate="onLoad"
                            id="linearGradient7" xlink:show="other"
                            spreadMethod="pad">
                <stop stop-opacity="1" stop-color="white" offset="0%"/>
                <stop stop-opacity="1" stop-color="white" offset="100%"/>
            </linearGradient>
            <linearGradient x1="31" xmlns:xlink="http://www.w3.org/1999/xlink"
                            gradientUnits="userSpaceOnUse" y1="237" x2="405"
                            y2="237" xlink:type="simple" xlink:actuate="onLoad"
                            id="linearGradient8" xlink:show="other"
                            spreadMethod="pad">
                <stop stop-opacity="1" stop-color="white" offset="0%"/>
                <stop stop-opacity="1" stop-color="white" offset="100%"/>
            </linearGradient>
            <linearGradient x1="31" xmlns:xlink="http://www.w3.org/1999/xlink"
                            gradientUnits="userSpaceOnUse" y1="311" x2="405"
                            y2="311" xlink:type="simple" xlink:actuate="onLoad"
                            id="linearGradient9" xlink:show="other"
                            spreadMethod="pad">
                <stop stop-opacity="1" stop-color="white" offset="0%"/>
                <stop stop-opacity="1" stop-color="white" offset="100%"/>
            </linearGradient>
            <clipPath clipPathUnits="userSpaceOnUse" id="clipPath1">
                <path d="M499 9 L740 9 L740 74 L499 74 L499 9 Z"/>
            </clipPath>
            <clipPath clipPathUnits="userSpaceOnUse" id="clipPath2">
                <path d="M499 9 L738 9 L738 72 L499 72 L499 9 Z"/>
            </clipPath>
            <clipPath clipPathUnits="userSpaceOnUse" id="clipPath3">
                <path d="M565 14 L675 14 L675 32 L565 32 L565 14 Z"/>
            </clipPath>
            <clipPath clipPathUnits="userSpaceOnUse" id="clipPath4">
                <path d="M504 37 L733 37 L733 55 L504 55 L504 37 Z"/>
            </clipPath>
            <clipPath clipPathUnits="userSpaceOnUse" id="clipPath5">
                <path d="M504 37 L737 37 L737 55 L504 55 L504 37 Z"/>
            </clipPath>
            <clipPath clipPathUnits="userSpaceOnUse" id="clipPath6">
                <path d="M504 53 L709 53 L709 71 L504 71 L504 53 Z"/>
            </clipPath>
            <clipPath clipPathUnits="userSpaceOnUse" id="clipPath7">
                <path d="M504 53 L713 53 L713 71 L504 71 L504 53 Z"/>
            </clipPath>
            <clipPath clipPathUnits="userSpaceOnUse" id="clipPath8">
                <path d="M500 35 L737 35 L737 71 L500 71 L500 35 Z"/>
            </clipPath>
            <clipPath clipPathUnits="userSpaceOnUse" id="clipPath9">
                <path d="M9 9 L484 9 L484 345 L9 345 L9 9 Z"/>
            </clipPath>
            <clipPath clipPathUnits="userSpaceOnUse" id="clipPath10">
                <path d="M9 9 L482 9 L482 343 L9 343 L9 9 Z"/>
            </clipPath>
            <clipPath clipPathUnits="userSpaceOnUse" id="clipPath11">
                <path d="M211 14 L280 14 L280 32 L211 32 L211 14 Z"/>
            </clipPath>
            <clipPath clipPathUnits="userSpaceOnUse" id="clipPath12">
                <path d="M211 14 L284 14 L284 32 L211 32 L211 14 Z"/>
            </clipPath>
            <clipPath clipPathUnits="userSpaceOnUse" id="clipPath13">
                <path d="M10 36 L481 36 L481 57 L10 57 L10 36 Z"/>
            </clipPath>
            <clipPath clipPathUnits="userSpaceOnUse" id="clipPath14">
                <path d="M14 37 L139 37 L139 55 L14 55 L14 37 Z"/>
            </clipPath>
            <clipPath clipPathUnits="userSpaceOnUse" id="clipPath15">
                <path d="M14 37 L143 37 L143 55 L14 55 L14 37 Z"/>
            </clipPath>
            <clipPath clipPathUnits="userSpaceOnUse" id="clipPath16">
                <path d="M10 55 L481 55 L481 92 L10 92 L10 55 Z"/>
            </clipPath>
            <clipPath clipPathUnits="userSpaceOnUse" id="clipPath17">
                <path d="M220 61 L274 61 L274 79 L220 79 L220 61 Z"/>
            </clipPath>
            <clipPath clipPathUnits="userSpaceOnUse" id="clipPath18">
                <path d="M10 82 L481 82 L481 92 L10 92 L10 82 Z"/>
            </clipPath>
            <clipPath clipPathUnits="userSpaceOnUse" id="clipPath19">
                <path d="M10 90 L481 90 L481 142 L10 142 L10 90 Z"/>
            </clipPath>
            <clipPath clipPathUnits="userSpaceOnUse" id="clipPath20">
                <path d="M216 96 L278 96 L278 114 L216 114 L216 96 Z"/>
            </clipPath>
            <clipPath clipPathUnits="userSpaceOnUse" id="clipPath21">
                <path d="M14 118 L107 118 L107 136 L14 136 L14 118 Z"/>
            </clipPath>
            <clipPath clipPathUnits="userSpaceOnUse" id="clipPath22">
                <path d="M14 118 L111 118 L111 136 L14 136 L14 118 Z"/>
            </clipPath>
            <clipPath clipPathUnits="userSpaceOnUse" id="clipPath23">
                <path d="M10 117 L481 117 L481 142 L10 142 L10 117 Z"/>
            </clipPath>
            <clipPath clipPathUnits="userSpaceOnUse" id="clipPath24">
                <path d="M10 140 L481 140 L481 342 L10 342 L10 140 Z"/>
            </clipPath>
            <clipPath clipPathUnits="userSpaceOnUse" id="clipPath25">
                <path d="M29 209 L409 209 L409 323 L29 323 L29 209 Z"/>
            </clipPath>
            <clipPath clipPathUnits="userSpaceOnUse" id="clipPath26">
                <path d="M29 209 L407 209 L407 321 L29 321 L29 209 Z"/>
            </clipPath>
            <clipPath clipPathUnits="userSpaceOnUse" id="clipPath27">
                <path d="M185 214 L255 214 L255 232 L185 232 L185 214 Z"/>
            </clipPath>
            <clipPath clipPathUnits="userSpaceOnUse" id="clipPath28">
                <path d="M30 236 L406 236 L406 312 L30 312 L30 236 Z"/>
            </clipPath>
            <clipPath clipPathUnits="userSpaceOnUse" id="clipPath29">
                <path d="M34 237 L400 237 L400 303 L34 303 L34 237 Z"/>
            </clipPath>
            <clipPath clipPathUnits="userSpaceOnUse" id="clipPath30">
                <path d="M30 310 L406 310 L406 320 L30 320 L30 310 Z"/>
            </clipPath>
            <clipPath clipPathUnits="userSpaceOnUse" id="clipPath31">
                <path d="M30 235 L406 235 L406 320 L30 320 L30 235 Z"/>
            </clipPath>
            <clipPath clipPathUnits="userSpaceOnUse" id="clipPath32">
                <path d="M205 159 L231 159 L231 185 L205 185 L205 159 Z"/>
            </clipPath>
            <clipPath clipPathUnits="userSpaceOnUse" id="clipPath33">
                <path d="M10 35 L481 35 L481 342 L10 342 L10 35 Z"/>
            </clipPath>
            <clipPath clipPathUnits="userSpaceOnUse" id="clipPath34">
                <path d="M-1 -1 L750 -1 L750 355 L-1 355 L-1 -1 Z"/>
            </clipPath>
            <clipPath clipPathUnits="userSpaceOnUse" id="clipPath35">
                <path d="M422 257 L468 257 L468 275 L422 275 L422 257 Z"/>
            </clipPath>
            <clipPath clipPathUnits="userSpaceOnUse" id="clipPath36">
                <path d="M404 233 L416 233 L416 244 L404 244 L404 233 Z"/>
            </clipPath>
            <clipPath clipPathUnits="userSpaceOnUse" id="clipPath37">
                <path d="M213 201 L224 201 L224 213 L213 213 L213 201 Z"/>
            </clipPath>
        </defs>
        <g font-size="13" fill="rgb(131,122,133)" stroke-linejoin="round"
           stroke="rgb(131,122,133)" stroke-width="0" stroke-miterlimit="0">
            <rect x="501" y="11" clip-path="url(#clipPath1)" width="237" rx="0"
                  height="61" ry="0" opacity="0.2549" stroke="none"/>
            <rect x="502" y="12" clip-path="url(#clipPath1)" width="237" rx="0"
                  height="61" ry="0" opacity="0.2549" stroke="none"/>
            <rect x="500" y="10" clip-path="url(#clipPath2)"
                  fill="url(#linearGradient1)" width="237" rx="0" height="61"
                  ry="0" stroke="none"/>
        </g>
        <g font-size="13" stroke-width="1.1" stroke-linecap="butt">
            <rect x="500" y="10" clip-path="url(#clipPath2)" fill="none"
                  width="236" rx="0" height="60" ry="0"/>
            <text x="566" xml:space="preserve" y="28"
                  clip-path="url(#clipPath3)" stroke="none">MoveConstants</text>
            <svg contentScriptType="text/ecmascript" zoomAndPan="magnify"
                 xmlns:rdf="http://www.w3.org/1999/02/22-rdf-syntax-ns#"
                 xmlns:xlink="http://www.w3.org/1999/xlink"
                 xmlns:svg="http://www.w3.org/2000/svg"
                 contentStyleType="text/css" id="svg2replaced0" version="1.1"
                 xml:space="preserve" width="16"
                 xmlns:dc="http://purl.org/dc/elements/1.1/"
                 xmlns:cc="http://creativecommons.org/ns#"
                 preserveAspectRatio="xMidYMid meet" viewBox="0 0 16 16"
                 height="16" xmlns="http://www.w3.org/2000/svg" x="505" y="38">
                <metadata id="metadata8replaced0">
                    <rdf:RDF>
                        <cc:Work rdf:about="">
                            <dc:format>image/svg+xml</dc:format><dc:type rdf:resource="http://purl.org/dc/dcmitype/StillImage"/>
                            <dc:title/></cc:Work></rdf:RDF></metadata>
                <defs id="defs6replaced0">
                    <clipPath clipPathUnits="userSpaceOnUse"
                              id="clipPath18replaced0">
                        <path d="m 0,8.26953 750,0 0,710 -750,0 0,-710 z"
                              id="path20replaced0"/></clipPath></defs>
                <g id="g10replaced0"
                   transform="matrix(1.25,0,0,-1.25,-5.3948395e-4,17.250368)">
                    <g id="g12replaced0" transform="scale(0.1,0.1)">
                        <g id="g14replaced0">
                            <g id="g16replaced0"
                               clip-path="url(#clipPath18replaced0)">
                                <path id="path22replaced0"
                                      d="m 99.552504,36.384436 c -18.283133,14.29508 -5.378227,73.108594 -5.378227,73.108594 l 22.353443,0 c 2.33075,0 11.4766,1.46901 11.4766,12.41854 0,13.46737 -11.17732,12.64496 -11.17732,12.64496 l -82.28727,0 c -13.506704,0 -25.6981897,-15.47132 -32.6997521,-26.5279 -3.7208936,-5.91196 -1.61595456,-7.56191 4.7837129,-4.78293 22.4249432,9.82118 28.7458012,6.28598 28.7458012,6.28598 1.57658,-7.56191 2.103646,-41.691398 -3.648076,-55.15877 -5.831244,-12.678995 -16.593101,-28.74368 -0.795045,-38.190882 12.34586,-6.9995616 25.284797,7.376323 24.00886,31.832744 -0.600602,12.945607 -1.623267,61.478258 -1.623267,61.478258 l 20.621239,0 C 73.291899,101.93026 69.792777,63.325848 73.44547,40.452693 77.247288,2.2617254 118.7456,9.6701135 126.49392,31.306681 c 1.92391,5.978829 1.46901,10.57552 0.0395,14.035309 -2.63208,6.433727 -7.03364,6.773703 -6.54591,3.760262 0.30047,-1.917241 0.11424,-3.799766 -0.18641,-5.491097 -0.90329,-5.229273 -11.59168,-13.433339 -20.248596,-7.226719 z"
                                      style="fill:#000000;fill-opacity:1;fill-rule:nonzero;stroke:none"/></g></g></g></g></svg>
            <text x="524" xml:space="preserve" y="51"
                  clip-path="url(#clipPath5)" stroke="none">FORWARD_EFFORT: real = 1.2</text>
            <svg contentScriptType="text/ecmascript" zoomAndPan="magnify"
                 xmlns:rdf="http://www.w3.org/1999/02/22-rdf-syntax-ns#"
                 xmlns:xlink="http://www.w3.org/1999/xlink"
                 xmlns:svg="http://www.w3.org/2000/svg"
                 contentStyleType="text/css" id="svg2replaced1" version="1.1"
                 xml:space="preserve" width="16"
                 xmlns:dc="http://purl.org/dc/elements/1.1/"
                 xmlns:cc="http://creativecommons.org/ns#"
                 preserveAspectRatio="xMidYMid meet" viewBox="0 0 16 16"
                 height="16" xmlns="http://www.w3.org/2000/svg" x="505" y="54">
                <metadata id="metadata8replaced1">
                    <rdf:RDF>
                        <cc:Work rdf:about="">
                            <dc:format>image/svg+xml</dc:format><dc:type rdf:resource="http://purl.org/dc/dcmitype/StillImage"/>
                            <dc:title/></cc:Work></rdf:RDF></metadata>
                <defs id="defs6replaced1">
                    <clipPath clipPathUnits="userSpaceOnUse"
                              id="clipPath18replaced1">
                        <path d="m 0,8.26953 750,0 0,710 -750,0 0,-710 z"
                              id="path20replaced1"/></clipPath></defs>
                <g id="g10replaced1"
                   transform="matrix(1.25,0,0,-1.25,-5.3948395e-4,17.250368)">
                    <g id="g12replaced1" transform="scale(0.1,0.1)">
                        <g id="g14replaced1">
                            <g id="g16replaced1"
                               clip-path="url(#clipPath18replaced1)">
                                <path id="path22replaced1"
                                      d="m 99.552504,36.384436 c -18.283133,14.29508 -5.378227,73.108594 -5.378227,73.108594 l 22.353443,0 c 2.33075,0 11.4766,1.46901 11.4766,12.41854 0,13.46737 -11.17732,12.64496 -11.17732,12.64496 l -82.28727,0 c -13.506704,0 -25.6981897,-15.47132 -32.6997521,-26.5279 -3.7208936,-5.91196 -1.61595456,-7.56191 4.7837129,-4.78293 22.4249432,9.82118 28.7458012,6.28598 28.7458012,6.28598 1.57658,-7.56191 2.103646,-41.691398 -3.648076,-55.15877 -5.831244,-12.678995 -16.593101,-28.74368 -0.795045,-38.190882 12.34586,-6.9995616 25.284797,7.376323 24.00886,31.832744 -0.600602,12.945607 -1.623267,61.478258 -1.623267,61.478258 l 20.621239,0 C 73.291899,101.93026 69.792777,63.325848 73.44547,40.452693 77.247288,2.2617254 118.7456,9.6701135 126.49392,31.306681 c 1.92391,5.978829 1.46901,10.57552 0.0395,14.035309 -2.63208,6.433727 -7.03364,6.773703 -6.54591,3.760262 0.30047,-1.917241 0.11424,-3.799766 -0.18641,-5.491097 -0.90329,-5.229273 -11.59168,-13.433339 -20.248596,-7.226719 z"
                                      style="fill:#000000;fill-opacity:1;fill-rule:nonzero;stroke:none"/></g></g></g></g></svg>
            <text x="524" xml:space="preserve" y="67"
                  clip-path="url(#clipPath7)" stroke="none">FORWARD_SPEED: real = 2</text>
            <line clip-path="url(#clipPath8)" fill="none" x1="501" x2="736"
                  y1="36" y2="36"/>
            <rect x="11" y="11" clip-path="url(#clipPath9)"
                  fill="rgb(131,122,133)" width="471" rx="0" height="332" ry="0"
                  opacity="0.2549" stroke="none"/>
            <rect x="12" y="12" clip-path="url(#clipPath9)"
                  fill="rgb(131,122,133)" width="471" rx="0" height="332" ry="0"
                  opacity="0.2549" stroke="none"/>
            <rect x="10" y="10" clip-path="url(#clipPath10)"
                  fill="url(#linearGradient2)" width="471" rx="0" height="332"
                  ry="0" stroke="none"/>
            <rect x="10" y="10" clip-path="url(#clipPath10)" fill="none"
                  width="470" rx="0" height="331" ry="0"/>
            <svg contentScriptType="text/ecmascript" zoomAndPan="magnify"
                 xmlns:rdf="http://www.w3.org/1999/02/22-rdf-syntax-ns#"
                 xmlns:xlink="http://www.w3.org/1999/xlink"
                 xmlns:svg="http://www.w3.org/2000/svg"
                 contentStyleType="text/css" id="svg2replaced2" version="1.1"
                 xml:space="preserve" width="16"
                 xmlns:dc="http://purl.org/dc/elements/1.1/"
                 xmlns:cc="http://creativecommons.org/ns#"
                 preserveAspectRatio="xMidYMid meet" viewBox="0 0 16 16.000025"
                 height="16" xmlns="http://www.w3.org/2000/svg" x="212" y="15">
                <metadata id="metadata8replaced2">
                    <rdf:RDF>
                        <cc:Work rdf:about="">
                            <dc:format>image/svg+xml</dc:format><dc:type rdf:resource="http://purl.org/dc/dcmitype/StillImage"/>
                            <dc:title/></cc:Work></rdf:RDF></metadata>
                <defs id="defs6replaced2">
                    <clipPath clipPathUnits="userSpaceOnUse"
                              id="clipPath18replaced2">
                        <path d="m 0,6 3870,0 0,4100 L 0,4106 0,6 Z"
                              id="path20replaced2"/></clipPath></defs>
                <g id="g10replaced2"
                   transform="matrix(1.25,0,0,-1.25,0,17.247584)">
                    <g id="g12replaced2"
                       transform="matrix(0.00312499,0,0,0.00312499,0.36626931,0.96685818)">
                        <g id="g14replaced2">
                            <g id="g16replaced2"
                               clip-path="url(#clipPath18replaced2)">
                                <path id="path22replaced2"
                                      d="M 1923.01,4106 C 804.102,4106 0,3294.4 0,2077.09 0,993.809 781.988,9.98047 1923.12,9.98047 3075.43,9.98047 3861.6,993.539 3861.6,2077.09 3861.6,3304.13 3031.84,4106 1923.01,4106 Z M 2636.25,2111.82 C 2635.98,1434.44 2599.84,469.91 1923.12,469.91 l 0,-0.16 c -667.1,0 -693.71,965.08 -693.71,1641.25 0,793.52 74.22,1554.26 693.71,1554.26 619.5,0 713.13,-770.31 713.13,-1553.44 z"
                                      style="fill:#000000;fill-opacity:1;fill-rule:nonzero;stroke:none"/></g></g></g></g></svg>
            <text x="231" xml:space="preserve" y="28"
                  clip-path="url(#clipPath12)" stroke="none">move()</text>

            <svg contentScriptType="text/ecmascript" zoomAndPan="magnify"
                 xmlns:rdf="http://www.w3.org/1999/02/22-rdf-syntax-ns#"
                 xmlns:xlink="http://www.w3.org/1999/xlink"
                 xmlns:svg="http://www.w3.org/2000/svg"
                 contentStyleType="text/css" id="Capa_1replaced3" version="1.1"
                 xml:space="preserve" width="16"
                 xmlns:dc="http://purl.org/dc/elements/1.1/"
                 xmlns:cc="http://creativecommons.org/ns#"
                 preserveAspectRatio="xMidYMid meet" viewBox="0 0 16 16"
                 height="16" xmlns="http://www.w3.org/2000/svg" x="15" y="38">
                <metadata id="metadata4912replaced3">
                    <rdf:RDF>
                        <cc:Work rdf:about="">
                            <dc:format>image/svg+xml</dc:format><dc:type rdf:resource="http://purl.org/dc/dcmitype/StillImage"/>
                            <dc:title/></cc:Work></rdf:RDF></metadata>
                <defs id="defs4910replaced3"/>
                <g id="g4875replaced3" style="fill:#000000"
                   transform="scale(0.03116964)">
                    <g style="fill:#000000" id="g4873replaced3">
                        <g style="fill:#000000" id="g4871replaced3">
                            <rect x="235.272" y="235.272" width="42.777"
                                  style="fill:#000000" height="149.718"
                                  id="rect4865replaced3"/>
                            <rect x="235.272" y="128.33" width="42.777"
                                  style="fill:#000000" height="64.165001"
                                  id="rect4867replaced3"/>
                            <path id="path4869replaced3"
                                  d="M 256.66,0 C 115.497,0 0,115.497 0,256.66 0,397.823 115.497,513.32 256.66,513.32 397.823,513.32 513.32,397.823 513.32,256.66 513.32,115.497 397.823,0 256.66,0 Z m 0,470.543 c -117.636,0 -213.883,-96.247 -213.883,-213.883 0,-117.636 96.247,-213.883 213.883,-213.883 117.636,0 213.883,96.247 213.883,213.883 0,117.636 -96.247,213.883 -213.883,213.883 z"
                                  style="fill:#000000"/></g></g></g>
                <g id="g4877replaced3" transform="translate(0,-497.32)"/>
                <g id="g4879replaced3" transform="translate(0,-497.32)"/>
                <g id="g4881replaced3" transform="translate(0,-497.32)"/>
                <g id="g4883replaced3" transform="translate(0,-497.32)"/>
                <g id="g4885replaced3" transform="translate(0,-497.32)"/>
                <g id="g4887replaced3" transform="translate(0,-497.32)"/>
                <g id="g4889replaced3" transform="translate(0,-497.32)"/>
                <g id="g4891replaced3" transform="translate(0,-497.32)"/>
                <g id="g4893replaced3" transform="translate(0,-497.32)"/>
                <g id="g4895replaced3" transform="translate(0,-497.32)"/>
                <g id="g4897replaced3" transform="translate(0,-497.32)"/>
                <g id="g4899replaced3" transform="translate(0,-497.32)"/>
                <g id="g4901replaced3" transform="translate(0,-497.32)"/>
                <g id="g4903replaced3" transform="translate(0,-497.32)"/>
                <g id="g4905replaced3" transform="translate(0,-497.32)"/></svg>
            <text x="34" xml:space="preserve" y="51"
                  clip-path="url(#clipPath15)" stroke="none">MoveConstants</text>

            <text x="221" xml:space="preserve" y="75"
                  clip-path="url(#clipPath17)" stroke="none">Inputs</text>
            <line clip-path="url(#clipPath18)" fill="none" x1="11" x2="480"
                  y1="83" y2="83"/>
            <line clip-path="url(#clipPath16)" fill="none" x1="11" x2="480"
                  y1="56" y2="56"/>
            <rect x="11" y="91" clip-path="url(#clipPath19)"
                  fill="url(#linearGradient5)" width="469" rx="0" height="50"
                  ry="0" stroke="none"/>
            <text x="217" xml:space="preserve" y="110"
                  clip-path="url(#clipPath20)" stroke="none">Outputs</text>
            <svg contentScriptType="text/ecmascript" zoomAndPan="magnify"
                 xmlns:rdf="http://www.w3.org/1999/02/22-rdf-syntax-ns#"
                 xmlns:xlink="http://www.w3.org/1999/xlink"
                 xmlns:svg="http://www.w3.org/2000/svg"
                 contentStyleType="text/css" id="svg2replaced4" version="1.1"
                 xml:space="preserve" width="16"
                 xmlns:dc="http://purl.org/dc/elements/1.1/"
                 xmlns:cc="http://creativecommons.org/ns#"
                 preserveAspectRatio="xMidYMid meet" viewBox="0 0 15.999996 16"
                 height="16" xmlns="http://www.w3.org/2000/svg" x="15" y="119">
                <metadata id="metadata13replaced4">
                    <rdf:RDF>
                        <cc:Work rdf:about="">
                            <dc:format>image/svg+xml</dc:format><dc:type rdf:resource="http://purl.org/dc/dcmitype/StillImage"/>
                            <dc:title/></cc:Work></rdf:RDF></metadata>
                <defs id="defs6replaced4">
                    <clipPath clipPathUnits="userSpaceOnUse"
                              id="clipPath18replaced4">
                        <path id="path20replaced4"
                              d="m0 2.5508h1770v1770h-1770v-1770z"/></clipPath></defs>
                <g id="g10replaced4" style="fill:#000000"
                   transform="matrix(1.25 0 0 -1.25 0 17.251)">
                    <g id="g12replaced4" style="fill:#000000"
                       transform="matrix(.0072621 0 0 .0072621 0 .92846)">
                        <g style="fill:#000000" id="g14replaced4">
                            <g id="g16replaced4" style="fill:#000000"
                               clip-path="url(#clipPath18replaced4)">
                                <path d="m881.29 1772.6c-485.94 0-881.29-395.4-881.29-881.34 0-485.93 395.35-881.25 881.29-881.25s881.29 395.32 881.29 881.25c0 485.94-395.35 881.29-881.29 881.29zm0-1520c-352.19 0-638.71 286.53-638.71 638.71 0 352.23 286.52 638.75 638.71 638.75s638.71-286.52 638.71-638.75c0-352.18-286.52-638.71-638.71-638.71zm320.23 753.36c0 177.89-124.84 288.4-325.86 288.4h-297.73v-806.09h170.7v224.61h127.07c7.461 0 15.391 0.192 23.52 0.582l164.3-225.19h211.56l-200.28 274.41c81.76 51.051 126.72 137.27 126.72 243.28zm-325.86-122.38h-127.03v240.08h127.07c155.12 0 155.12-88.6 155.12-117.7 0-30.269 0-122.38-155.16-122.38z"
                                      id="path22replaced4" style="fill:#000000"/></g></g></g></g></svg>
            <text x="34" xml:space="preserve" y="132"
                  clip-path="url(#clipPath22)" stroke="none">Actuators</text>
            <line clip-path="url(#clipPath23)" fill="none" x1="11" x2="480"
                  y1="118" y2="118"/>
            <line clip-path="url(#clipPath19)" fill="none" x1="11" x2="480"
                  y1="91" y2="91"/>

            <line clip-path="url(#clipPath24)" fill="none" x1="11" x2="480"
                  y1="141" y2="141"/>
            <rect x="31" y="211" clip-path="url(#clipPath25)"
                  fill="rgb(131,122,133)" width="376" rx="0" height="110" ry="0"
                  opacity="0.2549" stroke="none"/>
            <rect x="32" y="212" clip-path="url(#clipPath25)"
                  fill="rgb(131,122,133)" width="376" rx="0" height="110" ry="0"
                  opacity="0.2549" stroke="none"/>
            <rect x="30" y="210" clip-path="url(#clipPath26)"
                  fill="url(#linearGradient7)" width="376" rx="0" height="110"
                  ry="0" stroke="none"/>
            <rect x="30" y="210" clip-path="url(#clipPath26)" fill="none"
                  width="375" rx="0" height="109" ry="0"/>
            <text x="186" xml:space="preserve" y="228"
                  clip-path="url(#clipPath27)" stroke="none">SetSpeed</text>

            <text x="35" xml:space="preserve" y="251"
                  clip-path="url(#clipPath29)" stroke="none">entry set_left_effort_limit(FORWARD_EFFORT); </text>
            <text x="35" xml:space="preserve" y="267"
                  clip-path="url(#clipPath29)" stroke="none">set_right_effort_limit(FORWARD_EFFORT); </text>
            <text x="35" xml:space="preserve" y="283"
                  clip-path="url(#clipPath29)" stroke="none">output_left_motor(FORWARD_SPEED); </text>
            <text x="35" xml:space="preserve" y="299"
                  clip-path="url(#clipPath29)" stroke="none">output_right_motor(FORWARD_SPEED)</text>

            <line clip-path="url(#clipPath30)" fill="none" x1="31" x2="405"
                  y1="311" y2="311"/>
            <line clip-path="url(#clipPath31)" fill="none" x1="31" x2="405"
                  y1="236" y2="236"/>
            <svg contentScriptType="text/ecmascript" zoomAndPan="magnify"
                 xmlns:rdf="http://www.w3.org/1999/02/22-rdf-syntax-ns#"
                 xmlns:xlink="http://www.w3.org/1999/xlink"
                 xmlns:svg="http://www.w3.org/2000/svg"
                 contentStyleType="text/css" id="svg2replaced5" version="1.1"
                 xml:space="preserve" width="24"
                 xmlns:dc="http://purl.org/dc/elements/1.1/"
                 xmlns:cc="http://creativecommons.org/ns#"
                 preserveAspectRatio="xMidYMid meet" viewBox="0 0 16 16"
                 height="24" xmlns="http://www.w3.org/2000/svg" x="206" y="160">
                <metadata id="metadata8replaced5">
                    <rdf:RDF>
                        <cc:Work rdf:about="">
                            <dc:format>image/svg+xml</dc:format><dc:type rdf:resource="http://purl.org/dc/dcmitype/StillImage"/>
                            <dc:title/></cc:Work></rdf:RDF></metadata>
                <defs id="defs6replaced5"/>
                <g id="g10replaced5" transform="matrix(1.25,0,0,-1.25,0,16)">
                    <g id="g12replaced5" style="fill:#000000"
                       transform="scale(0.1,0.1)">
                        <path id="path14replaced5"
                              d="M 64,128 C 28.8156,128 0,99.184 0,64 0,28.8156 28.8156,0 64,0 c 35.184,0 64,28.8156 64,64 0,35.184 -28.816,64 -64,64 z m 6.40936,-96 -12.81872,0 0,38.40936 12.81872,0 0,-38.40936 z m 0,51.184 -12.81872,0 0,12.816 12.81872,0 0,-12.816 z"
                              style="fill:#000000;fill-opacity:1;fill-rule:nonzero;stroke:none"/></g></g></svg>
            <line clip-path="url(#clipPath33)" fill="none" x1="11" x2="480"
                  y1="36" y2="36"/>
            <line clip-path="url(#clipPath34)" fill="none" x1="406" x2="425"
                  y1="298" y2="298" stroke="rgb(136,136,136)" stroke-width="2.1"/>
            <line clip-path="url(#clipPath34)" fill="none" x1="425" x2="425"
                  y1="298" y2="238" stroke="rgb(136,136,136)" stroke-width="2.1"/>
            <line clip-path="url(#clipPath34)" fill="none" x1="425" x2="406"
                  y1="238" y2="238" stroke="rgb(136,136,136)" stroke-width="2.1"/>
            <text x="423" y="271" clip-path="url(#clipPath35)" stroke="none"
                  stroke-width="2.1" xml:space="preserve"> exec</text>
            <line clip-path="url(#clipPath36)" fill="none" x1="413" x2="406"
                  y1="235" y2="238" stroke="rgb(136,136,136)" stroke-width="2.1"/>
            <line clip-path="url(#clipPath36)" fill="none" x1="406" x2="413"
                  y1="238" y2="241" stroke="rgb(136,136,136)" stroke-width="2.1"/>
            <line clip-path="url(#clipPath34)" fill="none" x1="218" x2="218"
                  y1="183" y2="210" stroke="rgb(136,136,136)" stroke-width="2.1"/>
            <line clip-path="url(#clipPath37)" fill="none" x1="215" x2="218"
                  y1="203" y2="210" stroke="rgb(136,136,136)" stroke-width="2.1"/>
            <line clip-path="url(#clipPath37)" fill="none" x1="218" x2="221"
                  y1="210" y2="203" stroke="rgb(136,136,136)" stroke-width="2.1"/>
            <line clip-path="url(#clipPath34)" fill="none" x1="218" x2="218"
                  y1="183" y2="210" stroke="rgb(136,136,136)" stroke-width="2.1"/>
            <line clip-path="url(#clipPath37)" fill="none" x1="215" x2="218"
                  y1="203" y2="210" stroke="rgb(136,136,136)" stroke-width="2.1"/>
            <line clip-path="url(#clipPath37)" fill="none" x1="218" x2="221"
                  y1="210" y2="203" stroke="rgb(136,136,136)" stroke-width="2.1"/>
            <line clip-path="url(#clipPath34)" fill="none" x1="406" x2="425"
                  y1="298" y2="298" stroke="rgb(136,136,136)" stroke-width="2.1"/>
            <line clip-path="url(#clipPath34)" fill="none" x1="425" x2="425"
                  y1="298" y2="238" stroke="rgb(136,136,136)" stroke-width="2.1"/>
            <line clip-path="url(#clipPath34)" fill="none" x1="425" x2="406"
                  y1="238" y2="238" stroke="rgb(136,136,136)" stroke-width="2.1"/>
            <text x="423" y="271" clip-path="url(#clipPath35)" stroke="none"
                  stroke-width="2.1" xml:space="preserve"> exec</text>
            <line clip-path="url(#clipPath36)" fill="none" x1="413" x2="406"
                  y1="235" y2="238" stroke="rgb(136,136,136)" stroke-width="2.1"/>
            <line clip-path="url(#clipPath36)" fill="none" x1="406" x2="413"
                  y1="238" y2="241" stroke="rgb(136,136,136)" stroke-width="2.1"/>
        </g>
    </g>
</svg>